ply
format ascii 1.0
comment Created by Blender 2.79 (sub 0) - www.blender.org, source file: ''
element vertex 8
property float x
property float y
property float z
property uchar red
property uchar green
property uchar blue
element face 6
property list uchar uint vertex_indices
end_header
2.000000 0.000000 -2.000000 255 255 0
2.000000 0.000000 0.000000 255 0 0
0.000000 0.000000 0.000000 0 0 0
0.000000 0.000000 -2.000000 0 255 0
2.000000 2.000000 -2.000000 255 255 255
0.000000 2.000000 -2.000000 0 255 255
0.000000 2.000000 0.000000 0 0 255
2.000000 2.000000 0.000000 255 0 255
4 0 1 2 3
4 4 5 6 7
4 0 4 7 1
4 1 7 6 2
4 2 6 5 3
4 4 0 3 5
